<mxfile host="app.diagrams.net" agent="Mozilla/5.0 (Macintosh; Intel Mac OS X 10_15_7) AppleWebKit/537.36 (KHTML, like Gecko) Chrome/140.0.0.0 Safari/537.36" version="28.2.5">
  <diagram name="Page-1" id="ahby5j24STK9T4OgTVUH">
    <mxGraphModel dx="4293" dy="1393" grid="1" gridSize="10" guides="1" tooltips="1" connect="1" arrows="1" fold="1" page="1" pageScale="1" pageWidth="850" pageHeight="1100" math="0" shadow="0">
      <root>
        <mxCell id="0" />
        <mxCell id="1" parent="0" />
        <mxCell id="aXxjHZcpMNxlSh_hwpTn-4" style="edgeStyle=orthogonalEdgeStyle;rounded=0;orthogonalLoop=1;jettySize=auto;html=1;" edge="1" parent="1" source="aXxjHZcpMNxlSh_hwpTn-2" target="aXxjHZcpMNxlSh_hwpTn-3">
          <mxGeometry relative="1" as="geometry" />
        </mxCell>
        <mxCell id="aXxjHZcpMNxlSh_hwpTn-2" value="Physics Example Usage:" style="rounded=1;whiteSpace=wrap;html=1;" vertex="1" parent="1">
          <mxGeometry x="365" y="40" width="120" height="60" as="geometry" />
        </mxCell>
        <mxCell id="aXxjHZcpMNxlSh_hwpTn-8" value="" style="edgeStyle=orthogonalEdgeStyle;rounded=0;orthogonalLoop=1;jettySize=auto;html=1;" edge="1" parent="1" source="aXxjHZcpMNxlSh_hwpTn-3" target="aXxjHZcpMNxlSh_hwpTn-7">
          <mxGeometry relative="1" as="geometry" />
        </mxCell>
        <mxCell id="aXxjHZcpMNxlSh_hwpTn-3" value="COMMAND: sb physics" style="rounded=0;whiteSpace=wrap;html=1;" vertex="1" parent="1">
          <mxGeometry x="348" y="160" width="155" height="60" as="geometry" />
        </mxCell>
        <mxCell id="aXxjHZcpMNxlSh_hwpTn-17" style="edgeStyle=orthogonalEdgeStyle;rounded=0;orthogonalLoop=1;jettySize=auto;html=1;" edge="1" parent="1" source="aXxjHZcpMNxlSh_hwpTn-7" target="aXxjHZcpMNxlSh_hwpTn-20">
          <mxGeometry relative="1" as="geometry">
            <mxPoint x="425.2500000000002" y="380" as="targetPoint" />
          </mxGeometry>
        </mxCell>
        <mxCell id="aXxjHZcpMNxlSh_hwpTn-7" value="StudyBrain GUI opens" style="shape=parallelogram;perimeter=parallelogramPerimeter;whiteSpace=wrap;html=1;fixedSize=1;rounded=0;" vertex="1" parent="1">
          <mxGeometry x="343" y="270" width="165" height="60" as="geometry" />
        </mxCell>
        <mxCell id="aXxjHZcpMNxlSh_hwpTn-13" style="edgeStyle=orthogonalEdgeStyle;rounded=0;orthogonalLoop=1;jettySize=auto;html=1;curved=1;endArrow=none;endFill=0;dashed=1;" edge="1" parent="1" source="aXxjHZcpMNxlSh_hwpTn-12" target="aXxjHZcpMNxlSh_hwpTn-3">
          <mxGeometry relative="1" as="geometry" />
        </mxCell>
        <mxCell id="aXxjHZcpMNxlSh_hwpTn-14" style="edgeStyle=orthogonalEdgeStyle;rounded=0;orthogonalLoop=1;jettySize=auto;html=1;curved=1;endArrow=none;endFill=0;dashed=1;" edge="1" parent="1" source="aXxjHZcpMNxlSh_hwpTn-12" target="aXxjHZcpMNxlSh_hwpTn-7">
          <mxGeometry relative="1" as="geometry" />
        </mxCell>
        <mxCell id="aXxjHZcpMNxlSh_hwpTn-12" value="&lt;span style=&quot;text-wrap-mode: nowrap;&quot;&gt;&amp;nbsp;Opens the Physics&amp;nbsp;&lt;/span&gt;&lt;div&gt;&lt;span style=&quot;text-wrap-mode: nowrap;&quot;&gt;StudyAgent through a&amp;nbsp;&lt;/span&gt;&lt;/div&gt;&lt;div&gt;&lt;span style=&quot;text-wrap-mode: nowrap;&quot;&gt;command&lt;/span&gt;&lt;/div&gt;" style="shape=note;whiteSpace=wrap;html=1;backgroundOutline=1;darkOpacity=0.05;" vertex="1" parent="1">
          <mxGeometry x="560" y="180" width="130" height="110" as="geometry" />
        </mxCell>
        <mxCell id="aXxjHZcpMNxlSh_hwpTn-18" value="&lt;span style=&quot;text-wrap-mode: nowrap;&quot;&gt;User is given 2 options&lt;/span&gt;" style="shape=note;whiteSpace=wrap;html=1;backgroundOutline=1;darkOpacity=0.05;" vertex="1" parent="1">
          <mxGeometry x="580" y="421.25" width="130" height="55" as="geometry" />
        </mxCell>
        <mxCell id="aXxjHZcpMNxlSh_hwpTn-19" style="edgeStyle=orthogonalEdgeStyle;rounded=0;orthogonalLoop=1;jettySize=auto;html=1;curved=1;endArrow=none;endFill=0;dashed=1;" edge="1" parent="1" source="aXxjHZcpMNxlSh_hwpTn-18" target="aXxjHZcpMNxlSh_hwpTn-20">
          <mxGeometry relative="1" as="geometry">
            <mxPoint x="632" y="420" as="sourcePoint" />
            <mxPoint x="502.5000000000002" y="410" as="targetPoint" />
          </mxGeometry>
        </mxCell>
        <mxCell id="aXxjHZcpMNxlSh_hwpTn-26" style="edgeStyle=orthogonalEdgeStyle;rounded=0;orthogonalLoop=1;jettySize=auto;html=1;exitX=0.5;exitY=1;exitDx=0;exitDy=0;entryX=0.5;entryY=0;entryDx=0;entryDy=0;strokeColor=light-dark(#000000,#FF2100);" edge="1" parent="1" source="aXxjHZcpMNxlSh_hwpTn-20" target="aXxjHZcpMNxlSh_hwpTn-23">
          <mxGeometry relative="1" as="geometry">
            <Array as="points">
              <mxPoint x="425" y="610" />
              <mxPoint x="675" y="610" />
            </Array>
          </mxGeometry>
        </mxCell>
        <mxCell id="aXxjHZcpMNxlSh_hwpTn-29" value="Prepare for exam" style="edgeLabel;html=1;align=center;verticalAlign=middle;resizable=0;points=[];" vertex="1" connectable="0" parent="aXxjHZcpMNxlSh_hwpTn-26">
          <mxGeometry x="-0.1995" y="-3" relative="1" as="geometry">
            <mxPoint as="offset" />
          </mxGeometry>
        </mxCell>
        <mxCell id="aXxjHZcpMNxlSh_hwpTn-28" style="edgeStyle=orthogonalEdgeStyle;rounded=0;orthogonalLoop=1;jettySize=auto;html=1;strokeColor=light-dark(#000000,#3333FF);entryX=0.5;entryY=0;entryDx=0;entryDy=0;" edge="1" parent="1" source="aXxjHZcpMNxlSh_hwpTn-20" target="aXxjHZcpMNxlSh_hwpTn-27">
          <mxGeometry relative="1" as="geometry">
            <Array as="points">
              <mxPoint x="425" y="610" />
              <mxPoint x="30" y="610" />
            </Array>
          </mxGeometry>
        </mxCell>
        <mxCell id="aXxjHZcpMNxlSh_hwpTn-30" value="Study" style="edgeLabel;html=1;align=center;verticalAlign=middle;resizable=0;points=[];" vertex="1" connectable="0" parent="aXxjHZcpMNxlSh_hwpTn-28">
          <mxGeometry x="0.0182" y="1" relative="1" as="geometry">
            <mxPoint x="23" as="offset" />
          </mxGeometry>
        </mxCell>
        <mxCell id="aXxjHZcpMNxlSh_hwpTn-20" value="&lt;font style=&quot;color: light-dark(rgb(0, 0, 0), rgb(51, 51, 255));&quot;&gt;1. Study&lt;/font&gt;&lt;div&gt;&lt;font style=&quot;color: light-dark(rgb(0, 0, 0), rgb(255, 33, 0));&quot;&gt;2. Prepare for exam&lt;/font&gt;&lt;/div&gt;" style="rhombus;whiteSpace=wrap;html=1;" vertex="1" parent="1">
          <mxGeometry x="346" y="370" width="157.5" height="157.5" as="geometry" />
        </mxCell>
        <mxCell id="aXxjHZcpMNxlSh_hwpTn-72" style="edgeStyle=orthogonalEdgeStyle;rounded=0;orthogonalLoop=1;jettySize=auto;html=1;strokeColor=light-dark(#000000,#3333FF);" edge="1" parent="1" source="aXxjHZcpMNxlSh_hwpTn-88" target="aXxjHZcpMNxlSh_hwpTn-75">
          <mxGeometry relative="1" as="geometry">
            <mxPoint x="580" y="1250" as="targetPoint" />
            <Array as="points">
              <mxPoint x="580" y="1190" />
              <mxPoint x="580" y="1190" />
            </Array>
          </mxGeometry>
        </mxCell>
        <mxCell id="aXxjHZcpMNxlSh_hwpTn-93" value="1. Module 4: Electricity and Magnetism" style="edgeLabel;html=1;align=center;verticalAlign=middle;resizable=0;points=[];" vertex="1" connectable="0" parent="aXxjHZcpMNxlSh_hwpTn-72">
          <mxGeometry x="-0.1426" y="-1" relative="1" as="geometry">
            <mxPoint as="offset" />
          </mxGeometry>
        </mxCell>
        <mxCell id="aXxjHZcpMNxlSh_hwpTn-23" value="&lt;font style=&quot;color: light-dark(rgb(0, 80, 239), rgb(51, 51, 255));&quot;&gt;1. Prepare for existing exam&lt;/font&gt;&lt;div&gt;&lt;font style=&quot;color: light-dark(rgb(0, 80, 239), rgb(51, 51, 255));&quot;&gt;&amp;nbsp;- [PHY-Task-2]&lt;/font&gt;&lt;div&gt;&lt;font style=&quot;color: light-dark(rgb(0, 0, 0), rgb(255, 33, 0));&quot;&gt;2. Prepare for new exam&lt;/font&gt;&lt;/div&gt;&lt;/div&gt;" style="rhombus;whiteSpace=wrap;html=1;rounded=1;arcSize=0;" vertex="1" parent="1">
          <mxGeometry x="570" y="720" width="210" height="130" as="geometry" />
        </mxCell>
        <mxCell id="aXxjHZcpMNxlSh_hwpTn-133" style="edgeStyle=orthogonalEdgeStyle;rounded=0;orthogonalLoop=1;jettySize=auto;html=1;fontFamily=Helvetica;fontSize=12;fontColor=default;strokeColor=light-dark(#000000,#FF2100);" edge="1" parent="1" source="aXxjHZcpMNxlSh_hwpTn-27" target="aXxjHZcpMNxlSh_hwpTn-136">
          <mxGeometry relative="1" as="geometry">
            <mxPoint x="-330" y="785" as="targetPoint" />
          </mxGeometry>
        </mxCell>
        <mxCell id="aXxjHZcpMNxlSh_hwpTn-137" value="Start new session" style="edgeLabel;html=1;align=center;verticalAlign=middle;resizable=0;points=[];rounded=1;strokeColor=default;arcSize=0;fontFamily=Helvetica;fontSize=12;fontColor=default;fillColor=default;" vertex="1" connectable="0" parent="aXxjHZcpMNxlSh_hwpTn-133">
          <mxGeometry x="-0.0583" y="3" relative="1" as="geometry">
            <mxPoint x="-1" y="-3" as="offset" />
          </mxGeometry>
        </mxCell>
        <mxCell id="aXxjHZcpMNxlSh_hwpTn-157" style="edgeStyle=orthogonalEdgeStyle;rounded=0;orthogonalLoop=1;jettySize=auto;html=1;fontFamily=Helvetica;fontSize=12;fontColor=default;strokeColor=light-dark(#000000,#3333FF);" edge="1" parent="1" source="aXxjHZcpMNxlSh_hwpTn-27" target="aXxjHZcpMNxlSh_hwpTn-138">
          <mxGeometry relative="1" as="geometry">
            <Array as="points">
              <mxPoint x="-30" y="873" />
              <mxPoint x="-568" y="873" />
            </Array>
          </mxGeometry>
        </mxCell>
        <mxCell id="aXxjHZcpMNxlSh_hwpTn-159" value="Continue with last session" style="edgeLabel;html=1;align=center;verticalAlign=middle;resizable=0;points=[];rounded=1;strokeColor=default;arcSize=0;fontFamily=Helvetica;fontSize=12;fontColor=default;fillColor=default;" vertex="1" connectable="0" parent="aXxjHZcpMNxlSh_hwpTn-157">
          <mxGeometry x="-0.1407" y="3" relative="1" as="geometry">
            <mxPoint x="-47" y="-1" as="offset" />
          </mxGeometry>
        </mxCell>
        <mxCell id="aXxjHZcpMNxlSh_hwpTn-27" value="&lt;font style=&quot;color: light-dark(rgb(0, 0, 0), rgb(51, 51, 255));&quot;&gt;1. Continue with last session&lt;/font&gt;&lt;div&gt;&lt;font style=&quot;color: light-dark(rgb(0, 0, 0), rgb(255, 33, 0));&quot;&gt;2. Start new session&lt;/font&gt;&lt;/div&gt;" style="rhombus;whiteSpace=wrap;html=1;rounded=1;arcSize=0;" vertex="1" parent="1">
          <mxGeometry x="-90" y="720" width="240" height="130" as="geometry" />
        </mxCell>
        <mxCell id="aXxjHZcpMNxlSh_hwpTn-56" style="edgeStyle=orthogonalEdgeStyle;rounded=0;orthogonalLoop=1;jettySize=auto;html=1;entryX=0.5;entryY=0;entryDx=0;entryDy=0;entryPerimeter=0;strokeColor=light-dark(#000000,#FF2100);exitX=1;exitY=0.5;exitDx=0;exitDy=0;" edge="1" parent="1" source="aXxjHZcpMNxlSh_hwpTn-23" target="aXxjHZcpMNxlSh_hwpTn-37">
          <mxGeometry relative="1" as="geometry">
            <mxPoint x="920" y="790" as="sourcePoint" />
          </mxGeometry>
        </mxCell>
        <mxCell id="aXxjHZcpMNxlSh_hwpTn-57" style="edgeStyle=orthogonalEdgeStyle;rounded=0;orthogonalLoop=1;jettySize=auto;html=1;entryX=0.5;entryY=0;entryDx=0;entryDy=0;entryPerimeter=0;strokeColor=light-dark(#000000,#FF2100);exitX=1;exitY=0.5;exitDx=0;exitDy=0;" edge="1" parent="1" source="aXxjHZcpMNxlSh_hwpTn-23" target="aXxjHZcpMNxlSh_hwpTn-45">
          <mxGeometry relative="1" as="geometry">
            <mxPoint x="920" y="790" as="sourcePoint" />
          </mxGeometry>
        </mxCell>
        <mxCell id="aXxjHZcpMNxlSh_hwpTn-58" style="edgeStyle=orthogonalEdgeStyle;rounded=0;orthogonalLoop=1;jettySize=auto;html=1;entryX=0.5;entryY=0;entryDx=0;entryDy=0;entryPerimeter=0;strokeColor=light-dark(#000000,#FF2100);exitX=1;exitY=0.5;exitDx=0;exitDy=0;" edge="1" parent="1" source="aXxjHZcpMNxlSh_hwpTn-23" target="aXxjHZcpMNxlSh_hwpTn-49">
          <mxGeometry relative="1" as="geometry">
            <mxPoint x="920" y="790" as="sourcePoint" />
          </mxGeometry>
        </mxCell>
        <mxCell id="aXxjHZcpMNxlSh_hwpTn-59" value="Prepare for new exam" style="edgeLabel;html=1;align=center;verticalAlign=middle;resizable=0;points=[];" vertex="1" connectable="0" parent="aXxjHZcpMNxlSh_hwpTn-58">
          <mxGeometry x="-0.9122" y="-1" relative="1" as="geometry">
            <mxPoint x="51" y="-1" as="offset" />
          </mxGeometry>
        </mxCell>
        <mxCell id="aXxjHZcpMNxlSh_hwpTn-68" style="edgeStyle=orthogonalEdgeStyle;rounded=0;orthogonalLoop=1;jettySize=auto;html=1;curved=1;dashed=1;endArrow=none;endFill=0;exitX=0;exitY=0.5;exitDx=0;exitDy=0;exitPerimeter=0;" edge="1" parent="1" source="aXxjHZcpMNxlSh_hwpTn-60">
          <mxGeometry relative="1" as="geometry">
            <mxPoint x="1690" y="915" as="targetPoint" />
            <Array as="points">
              <mxPoint x="1820" y="1045" />
              <mxPoint x="1760" y="1045" />
              <mxPoint x="1760" y="915" />
            </Array>
          </mxGeometry>
        </mxCell>
        <mxCell id="aXxjHZcpMNxlSh_hwpTn-69" style="edgeStyle=orthogonalEdgeStyle;rounded=0;orthogonalLoop=1;jettySize=auto;html=1;curved=1;dashed=1;endArrow=none;endFill=0;exitX=0;exitY=0.5;exitDx=0;exitDy=0;exitPerimeter=0;" edge="1" parent="1" source="aXxjHZcpMNxlSh_hwpTn-60">
          <mxGeometry relative="1" as="geometry">
            <mxPoint x="1690" y="1205" as="targetPoint" />
            <Array as="points">
              <mxPoint x="1820" y="1045" />
              <mxPoint x="1760" y="1045" />
              <mxPoint x="1760" y="1205" />
            </Array>
          </mxGeometry>
        </mxCell>
        <mxCell id="aXxjHZcpMNxlSh_hwpTn-60" value="&lt;span style=&quot;text-wrap-mode: nowrap;&quot;&gt;Collects exam data from user&lt;/span&gt;" style="shape=note;whiteSpace=wrap;html=1;backgroundOutline=1;darkOpacity=0.05;size=20;" vertex="1" parent="1">
          <mxGeometry x="1820" y="1005" width="176.25" height="55" as="geometry" />
        </mxCell>
        <mxCell id="aXxjHZcpMNxlSh_hwpTn-64" value="" style="group;perimeterSpacing=11;strokeColor=default;fillColor=none;strokeWidth=2;rounded=0;arcSize=5;dashed=1;glass=0;shadow=0;" vertex="1" connectable="0" parent="1">
          <mxGeometry x="860" y="895" width="827" height="330" as="geometry" />
        </mxCell>
        <mxCell id="aXxjHZcpMNxlSh_hwpTn-39" value="" style="edgeStyle=orthogonalEdgeStyle;rounded=0;orthogonalLoop=1;jettySize=auto;html=1;" edge="1" parent="aXxjHZcpMNxlSh_hwpTn-64" source="aXxjHZcpMNxlSh_hwpTn-37" target="aXxjHZcpMNxlSh_hwpTn-38">
          <mxGeometry relative="1" as="geometry" />
        </mxCell>
        <mxCell id="aXxjHZcpMNxlSh_hwpTn-37" value="Initialising data" style="shape=note;whiteSpace=wrap;html=1;backgroundOutline=1;darkOpacity=0.05;" vertex="1" parent="aXxjHZcpMNxlSh_hwpTn-64">
          <mxGeometry x="121.87" width="70" height="60" as="geometry" />
        </mxCell>
        <mxCell id="aXxjHZcpMNxlSh_hwpTn-41" value="" style="edgeStyle=orthogonalEdgeStyle;rounded=0;orthogonalLoop=1;jettySize=auto;html=1;" edge="1" parent="aXxjHZcpMNxlSh_hwpTn-64" source="aXxjHZcpMNxlSh_hwpTn-38" target="aXxjHZcpMNxlSh_hwpTn-40">
          <mxGeometry relative="1" as="geometry" />
        </mxCell>
        <mxCell id="aXxjHZcpMNxlSh_hwpTn-38" value="&lt;span style=&quot;white-space: pre;&quot;&gt;&#x9;&lt;/span&gt;SYSTEM: Enter exam:&lt;div&gt;&lt;span style=&quot;background-color: transparent; color: light-dark(rgb(0, 0, 0), rgb(255, 255, 255));&quot;&gt;&lt;span style=&quot;white-space: pre;&quot;&gt;&#x9;&lt;/span&gt;USER: &quot;PHY-HSC&quot;&lt;/span&gt;&lt;/div&gt;" style="shape=parallelogram;perimeter=parallelogramPerimeter;whiteSpace=wrap;html=1;fixedSize=1;align=left;" vertex="1" parent="aXxjHZcpMNxlSh_hwpTn-64">
          <mxGeometry x="64.37" y="90" width="185" height="60" as="geometry" />
        </mxCell>
        <mxCell id="aXxjHZcpMNxlSh_hwpTn-43" value="" style="edgeStyle=orthogonalEdgeStyle;rounded=0;orthogonalLoop=1;jettySize=auto;html=1;" edge="1" parent="aXxjHZcpMNxlSh_hwpTn-64" source="aXxjHZcpMNxlSh_hwpTn-40" target="aXxjHZcpMNxlSh_hwpTn-42">
          <mxGeometry relative="1" as="geometry" />
        </mxCell>
        <mxCell id="aXxjHZcpMNxlSh_hwpTn-40" value="&lt;span style=&quot;white-space: pre;&quot;&gt;&#x9;&lt;/span&gt;SYSTEM: Enter time and date:&lt;div&gt;&lt;span style=&quot;background-color: transparent; color: light-dark(rgb(0, 0, 0), rgb(255, 255, 255));&quot;&gt;&lt;span style=&quot;white-space: pre;&quot;&gt;&#x9;&lt;/span&gt;USER: &quot;Oct 13th at 10am&quot;&lt;/span&gt;&lt;/div&gt;" style="shape=parallelogram;perimeter=parallelogramPerimeter;whiteSpace=wrap;html=1;fixedSize=1;align=left;" vertex="1" parent="aXxjHZcpMNxlSh_hwpTn-64">
          <mxGeometry x="48.120000000000005" y="180" width="217.5" height="60" as="geometry" />
        </mxCell>
        <mxCell id="aXxjHZcpMNxlSh_hwpTn-42" value="&lt;span style=&quot;white-space: pre;&quot;&gt;&#x9;&lt;/span&gt;SYSTEM: Provide notification:&lt;div&gt;&lt;span style=&quot;background-color: transparent; color: light-dark(rgb(0, 0, 0), rgb(255, 255, 255));&quot;&gt;&lt;span style=&quot;white-space: pre;&quot;&gt;&#x9;&lt;/span&gt;USER: &quot;./PHY-HSC-Assessment-task-notification&quot;&lt;/span&gt;&lt;/div&gt;" style="shape=parallelogram;perimeter=parallelogramPerimeter;whiteSpace=wrap;html=1;fixedSize=1;align=left;" vertex="1" parent="aXxjHZcpMNxlSh_hwpTn-64">
          <mxGeometry y="270" width="313.75" height="60" as="geometry" />
        </mxCell>
        <mxCell id="aXxjHZcpMNxlSh_hwpTn-48" style="edgeStyle=orthogonalEdgeStyle;rounded=0;orthogonalLoop=1;jettySize=auto;html=1;" edge="1" parent="aXxjHZcpMNxlSh_hwpTn-64" source="aXxjHZcpMNxlSh_hwpTn-45" target="aXxjHZcpMNxlSh_hwpTn-47">
          <mxGeometry relative="1" as="geometry" />
        </mxCell>
        <mxCell id="aXxjHZcpMNxlSh_hwpTn-45" value="Existing progress data" style="shape=note;whiteSpace=wrap;html=1;backgroundOutline=1;darkOpacity=0.05;" vertex="1" parent="aXxjHZcpMNxlSh_hwpTn-64">
          <mxGeometry x="368.1199999999999" width="70" height="60" as="geometry" />
        </mxCell>
        <mxCell id="aXxjHZcpMNxlSh_hwpTn-47" value="&lt;span style=&quot;white-space: pre;&quot;&gt;&#x9;&lt;/span&gt;SYSTEM: Enter practice test directory:&lt;div&gt;&lt;span style=&quot;background-color: transparent; color: light-dark(rgb(0, 0, 0), rgb(255, 255, 255));&quot;&gt;&lt;span style=&quot;white-space: pre;&quot;&gt;&#x9;&lt;/span&gt;USER: &quot;./Practice_Tests/&quot;&lt;/span&gt;&lt;/div&gt;" style="shape=parallelogram;perimeter=parallelogramPerimeter;whiteSpace=wrap;html=1;fixedSize=1;align=left;" vertex="1" parent="aXxjHZcpMNxlSh_hwpTn-64">
          <mxGeometry x="280.0000000000001" y="90" width="247.5" height="60" as="geometry" />
        </mxCell>
        <mxCell id="aXxjHZcpMNxlSh_hwpTn-55" style="edgeStyle=orthogonalEdgeStyle;rounded=0;orthogonalLoop=1;jettySize=auto;html=1;" edge="1" parent="aXxjHZcpMNxlSh_hwpTn-64" source="aXxjHZcpMNxlSh_hwpTn-49" target="aXxjHZcpMNxlSh_hwpTn-50">
          <mxGeometry relative="1" as="geometry" />
        </mxCell>
        <mxCell id="aXxjHZcpMNxlSh_hwpTn-49" value="Resources" style="shape=note;whiteSpace=wrap;html=1;backgroundOutline=1;darkOpacity=0.05;" vertex="1" parent="aXxjHZcpMNxlSh_hwpTn-64">
          <mxGeometry x="661.8800000000001" width="70" height="60" as="geometry" />
        </mxCell>
        <mxCell id="aXxjHZcpMNxlSh_hwpTn-52" value="" style="edgeStyle=orthogonalEdgeStyle;rounded=0;orthogonalLoop=1;jettySize=auto;html=1;" edge="1" parent="aXxjHZcpMNxlSh_hwpTn-64" source="aXxjHZcpMNxlSh_hwpTn-50" target="aXxjHZcpMNxlSh_hwpTn-51">
          <mxGeometry relative="1" as="geometry" />
        </mxCell>
        <mxCell id="aXxjHZcpMNxlSh_hwpTn-50" value="&lt;span style=&quot;white-space: pre;&quot;&gt;&#x9;&lt;/span&gt;SYSTEM: Enter class resources:&lt;div&gt;&lt;span style=&quot;background-color: transparent; color: light-dark(rgb(0, 0, 0), rgb(255, 255, 255));&quot;&gt;&lt;span style=&quot;white-space: pre;&quot;&gt;&#x9;&lt;/span&gt;USER: &quot;./Resources/Class_Materials/&quot;&lt;/span&gt;&lt;/div&gt;" style="shape=parallelogram;perimeter=parallelogramPerimeter;whiteSpace=wrap;html=1;fixedSize=1;align=left;" vertex="1" parent="aXxjHZcpMNxlSh_hwpTn-64">
          <mxGeometry x="566.8800000000001" y="90" width="260" height="60" as="geometry" />
        </mxCell>
        <mxCell id="aXxjHZcpMNxlSh_hwpTn-54" value="" style="edgeStyle=orthogonalEdgeStyle;rounded=0;orthogonalLoop=1;jettySize=auto;html=1;" edge="1" parent="aXxjHZcpMNxlSh_hwpTn-64" source="aXxjHZcpMNxlSh_hwpTn-51" target="aXxjHZcpMNxlSh_hwpTn-53">
          <mxGeometry relative="1" as="geometry" />
        </mxCell>
        <mxCell id="aXxjHZcpMNxlSh_hwpTn-51" value="&lt;span style=&quot;white-space: pre;&quot;&gt;&#x9;&lt;/span&gt;SYSTEM: Enter curriculum resources:&lt;div&gt;&lt;span style=&quot;background-color: transparent; color: light-dark(rgb(0, 0, 0), rgb(255, 255, 255));&quot;&gt;&lt;span style=&quot;white-space: pre;&quot;&gt;&#x9;&lt;/span&gt;USER: &quot;./Resources/Curriculum/&quot;&lt;/span&gt;&lt;/div&gt;" style="shape=parallelogram;perimeter=parallelogramPerimeter;whiteSpace=wrap;html=1;fixedSize=1;align=left;" vertex="1" parent="aXxjHZcpMNxlSh_hwpTn-64">
          <mxGeometry x="571.8900000000001" y="180" width="249.99" height="60" as="geometry" />
        </mxCell>
        <mxCell id="aXxjHZcpMNxlSh_hwpTn-53" value="&lt;span style=&quot;white-space: pre;&quot;&gt;&#x9;&lt;/span&gt;SYSTEM: Enter notes:&lt;div&gt;&lt;span style=&quot;background-color: transparent; color: light-dark(rgb(0, 0, 0), rgb(255, 255, 255));&quot;&gt;&lt;span style=&quot;white-space: pre;&quot;&gt;&#x9;&lt;/span&gt;USER: &quot;./Study_Notes/&quot;&lt;/span&gt;&lt;/div&gt;" style="shape=parallelogram;perimeter=parallelogramPerimeter;whiteSpace=wrap;html=1;fixedSize=1;align=left;" vertex="1" parent="aXxjHZcpMNxlSh_hwpTn-64">
          <mxGeometry x="606.8800000000001" y="270" width="180" height="60" as="geometry" />
        </mxCell>
        <mxCell id="aXxjHZcpMNxlSh_hwpTn-92" style="edgeStyle=orthogonalEdgeStyle;rounded=0;orthogonalLoop=1;jettySize=auto;html=1;entryX=1;entryY=0.5;entryDx=0;entryDy=0;" edge="1" parent="1" source="aXxjHZcpMNxlSh_hwpTn-76" target="aXxjHZcpMNxlSh_hwpTn-88">
          <mxGeometry relative="1" as="geometry">
            <Array as="points">
              <mxPoint x="790" y="1355" />
              <mxPoint x="790" y="1095" />
            </Array>
          </mxGeometry>
        </mxCell>
        <mxCell id="aXxjHZcpMNxlSh_hwpTn-76" value="Saves collected data" style="shape=cylinder3;whiteSpace=wrap;html=1;boundedLbl=1;backgroundOutline=1;size=15;" vertex="1" parent="1">
          <mxGeometry x="1208" y="1310" width="135" height="90" as="geometry" />
        </mxCell>
        <mxCell id="aXxjHZcpMNxlSh_hwpTn-77" style="edgeStyle=orthogonalEdgeStyle;rounded=0;orthogonalLoop=1;jettySize=auto;html=1;" edge="1" parent="1" source="aXxjHZcpMNxlSh_hwpTn-42" target="aXxjHZcpMNxlSh_hwpTn-76">
          <mxGeometry relative="1" as="geometry">
            <Array as="points">
              <mxPoint x="1017" y="1250" />
              <mxPoint x="1275" y="1250" />
            </Array>
          </mxGeometry>
        </mxCell>
        <mxCell id="aXxjHZcpMNxlSh_hwpTn-78" style="edgeStyle=orthogonalEdgeStyle;rounded=0;orthogonalLoop=1;jettySize=auto;html=1;" edge="1" parent="1" source="aXxjHZcpMNxlSh_hwpTn-47" target="aXxjHZcpMNxlSh_hwpTn-76">
          <mxGeometry relative="1" as="geometry" />
        </mxCell>
        <mxCell id="aXxjHZcpMNxlSh_hwpTn-79" style="edgeStyle=orthogonalEdgeStyle;rounded=0;orthogonalLoop=1;jettySize=auto;html=1;" edge="1" parent="1" source="aXxjHZcpMNxlSh_hwpTn-53" target="aXxjHZcpMNxlSh_hwpTn-76">
          <mxGeometry relative="1" as="geometry">
            <Array as="points">
              <mxPoint x="1557" y="1250" />
              <mxPoint x="1275" y="1250" />
            </Array>
          </mxGeometry>
        </mxCell>
        <mxCell id="aXxjHZcpMNxlSh_hwpTn-89" value="" style="edgeStyle=orthogonalEdgeStyle;rounded=0;orthogonalLoop=1;jettySize=auto;html=1;strokeColor=light-dark(#000000,#3333FF);" edge="1" parent="1" source="aXxjHZcpMNxlSh_hwpTn-23" target="aXxjHZcpMNxlSh_hwpTn-88">
          <mxGeometry relative="1" as="geometry">
            <mxPoint x="580" y="1290" as="targetPoint" />
            <mxPoint x="675" y="850" as="sourcePoint" />
            <Array as="points">
              <mxPoint x="675" y="970" />
              <mxPoint x="580" y="970" />
            </Array>
          </mxGeometry>
        </mxCell>
        <mxCell id="aXxjHZcpMNxlSh_hwpTn-90" value="Prepare for existing exam" style="edgeLabel;html=1;align=center;verticalAlign=middle;resizable=0;points=[];" vertex="1" connectable="0" parent="aXxjHZcpMNxlSh_hwpTn-89">
          <mxGeometry x="-0.709" relative="1" as="geometry">
            <mxPoint as="offset" />
          </mxGeometry>
        </mxCell>
        <mxCell id="aXxjHZcpMNxlSh_hwpTn-88" value="Diagnostics quiz options:&lt;div&gt;&lt;font style=&quot;color: light-dark(rgb(0, 0, 0), rgb(51, 51, 255));&quot;&gt;1. Module 4: Electricity and Magnetism&lt;/font&gt;&lt;/div&gt;" style="rhombus;whiteSpace=wrap;html=1;" vertex="1" parent="1">
          <mxGeometry x="468.75" y="1030" width="222.5" height="130" as="geometry" />
        </mxCell>
        <mxCell id="aXxjHZcpMNxlSh_hwpTn-130" value="" style="group;strokeColor=default;strokeWidth=2;dashed=1;" vertex="1" connectable="0" parent="1">
          <mxGeometry x="340.75" y="1290" width="619.25" height="520" as="geometry" />
        </mxCell>
        <mxCell id="aXxjHZcpMNxlSh_hwpTn-83" style="edgeStyle=orthogonalEdgeStyle;rounded=0;orthogonalLoop=1;jettySize=auto;html=1;" edge="1" parent="aXxjHZcpMNxlSh_hwpTn-130" source="aXxjHZcpMNxlSh_hwpTn-75" target="aXxjHZcpMNxlSh_hwpTn-82">
          <mxGeometry relative="1" as="geometry" />
        </mxCell>
        <mxCell id="aXxjHZcpMNxlSh_hwpTn-75" value="Diagnostics quiz" style="shape=process;whiteSpace=wrap;html=1;backgroundOutline=1;" vertex="1" parent="aXxjHZcpMNxlSh_hwpTn-130">
          <mxGeometry x="179.25" width="120" height="60" as="geometry" />
        </mxCell>
        <mxCell id="aXxjHZcpMNxlSh_hwpTn-101" value="" style="edgeStyle=orthogonalEdgeStyle;rounded=0;orthogonalLoop=1;jettySize=auto;html=1;" edge="1" parent="aXxjHZcpMNxlSh_hwpTn-130" source="aXxjHZcpMNxlSh_hwpTn-82" target="aXxjHZcpMNxlSh_hwpTn-100">
          <mxGeometry relative="1" as="geometry" />
        </mxCell>
        <mxCell id="aXxjHZcpMNxlSh_hwpTn-104" style="edgeStyle=orthogonalEdgeStyle;rounded=0;orthogonalLoop=1;jettySize=auto;html=1;" edge="1" parent="aXxjHZcpMNxlSh_hwpTn-130" source="aXxjHZcpMNxlSh_hwpTn-84" target="aXxjHZcpMNxlSh_hwpTn-102">
          <mxGeometry relative="1" as="geometry" />
        </mxCell>
        <mxCell id="aXxjHZcpMNxlSh_hwpTn-105" style="edgeStyle=orthogonalEdgeStyle;rounded=0;orthogonalLoop=1;jettySize=auto;html=1;" edge="1" parent="aXxjHZcpMNxlSh_hwpTn-130" source="aXxjHZcpMNxlSh_hwpTn-86" target="aXxjHZcpMNxlSh_hwpTn-103">
          <mxGeometry relative="1" as="geometry" />
        </mxCell>
        <mxCell id="aXxjHZcpMNxlSh_hwpTn-107" value="" style="edgeStyle=orthogonalEdgeStyle;rounded=0;orthogonalLoop=1;jettySize=auto;html=1;" edge="1" parent="aXxjHZcpMNxlSh_hwpTn-130" source="aXxjHZcpMNxlSh_hwpTn-100" target="aXxjHZcpMNxlSh_hwpTn-106">
          <mxGeometry relative="1" as="geometry" />
        </mxCell>
        <mxCell id="aXxjHZcpMNxlSh_hwpTn-112" style="edgeStyle=orthogonalEdgeStyle;rounded=0;orthogonalLoop=1;jettySize=auto;html=1;" edge="1" parent="aXxjHZcpMNxlSh_hwpTn-130" source="aXxjHZcpMNxlSh_hwpTn-102" target="aXxjHZcpMNxlSh_hwpTn-108">
          <mxGeometry relative="1" as="geometry" />
        </mxCell>
        <mxCell id="aXxjHZcpMNxlSh_hwpTn-110" style="edgeStyle=orthogonalEdgeStyle;rounded=0;orthogonalLoop=1;jettySize=auto;html=1;" edge="1" parent="aXxjHZcpMNxlSh_hwpTn-130" source="aXxjHZcpMNxlSh_hwpTn-103" target="aXxjHZcpMNxlSh_hwpTn-109">
          <mxGeometry relative="1" as="geometry" />
        </mxCell>
        <mxCell id="aXxjHZcpMNxlSh_hwpTn-117" style="edgeStyle=orthogonalEdgeStyle;rounded=0;orthogonalLoop=1;jettySize=auto;html=1;" edge="1" parent="aXxjHZcpMNxlSh_hwpTn-130" source="aXxjHZcpMNxlSh_hwpTn-106" target="aXxjHZcpMNxlSh_hwpTn-116">
          <mxGeometry relative="1" as="geometry" />
        </mxCell>
        <mxCell id="aXxjHZcpMNxlSh_hwpTn-118" style="edgeStyle=orthogonalEdgeStyle;rounded=0;orthogonalLoop=1;jettySize=auto;html=1;" edge="1" parent="aXxjHZcpMNxlSh_hwpTn-130" source="aXxjHZcpMNxlSh_hwpTn-108" target="aXxjHZcpMNxlSh_hwpTn-116">
          <mxGeometry relative="1" as="geometry" />
        </mxCell>
        <mxCell id="aXxjHZcpMNxlSh_hwpTn-119" style="edgeStyle=orthogonalEdgeStyle;rounded=0;orthogonalLoop=1;jettySize=auto;html=1;" edge="1" parent="aXxjHZcpMNxlSh_hwpTn-130" source="aXxjHZcpMNxlSh_hwpTn-109" target="aXxjHZcpMNxlSh_hwpTn-116">
          <mxGeometry relative="1" as="geometry" />
        </mxCell>
        <mxCell id="aXxjHZcpMNxlSh_hwpTn-116" value="Saves results" style="shape=cylinder3;whiteSpace=wrap;html=1;boundedLbl=1;backgroundOutline=1;size=15;" vertex="1" parent="aXxjHZcpMNxlSh_hwpTn-130">
          <mxGeometry x="499.25" y="210" width="120" height="100" as="geometry" />
        </mxCell>
        <mxCell id="aXxjHZcpMNxlSh_hwpTn-127" style="edgeStyle=orthogonalEdgeStyle;rounded=0;orthogonalLoop=1;jettySize=auto;html=1;fontFamily=Helvetica;fontSize=12;fontColor=default;dashed=1;endArrow=none;endFill=0;" edge="1" parent="aXxjHZcpMNxlSh_hwpTn-130" source="aXxjHZcpMNxlSh_hwpTn-120" target="aXxjHZcpMNxlSh_hwpTn-86">
          <mxGeometry relative="1" as="geometry" />
        </mxCell>
        <mxCell id="aXxjHZcpMNxlSh_hwpTn-120" value="Asks the user a question, gets their answer and their comments" style="shape=note;whiteSpace=wrap;html=1;backgroundOutline=1;darkOpacity=0.05;size=18;" vertex="1" parent="aXxjHZcpMNxlSh_hwpTn-130">
          <mxGeometry x="75.62" y="450" width="105.75" height="70" as="geometry" />
        </mxCell>
        <mxCell id="aXxjHZcpMNxlSh_hwpTn-128" style="edgeStyle=orthogonalEdgeStyle;rounded=0;orthogonalLoop=1;jettySize=auto;html=1;fontFamily=Helvetica;fontSize=12;fontColor=default;curved=1;dashed=1;endArrow=none;endFill=0;" edge="1" parent="aXxjHZcpMNxlSh_hwpTn-130" source="aXxjHZcpMNxlSh_hwpTn-121" target="aXxjHZcpMNxlSh_hwpTn-103">
          <mxGeometry relative="1" as="geometry" />
        </mxCell>
        <mxCell id="aXxjHZcpMNxlSh_hwpTn-121" value="Marks answer and converts comments to confidence" style="shape=note;whiteSpace=wrap;html=1;backgroundOutline=1;darkOpacity=0.05;size=15;" vertex="1" parent="aXxjHZcpMNxlSh_hwpTn-130">
          <mxGeometry x="254.75" y="455" width="110" height="60" as="geometry" />
        </mxCell>
        <mxCell id="aXxjHZcpMNxlSh_hwpTn-129" style="edgeStyle=orthogonalEdgeStyle;rounded=0;orthogonalLoop=1;jettySize=auto;html=1;fontFamily=Helvetica;fontSize=12;fontColor=default;curved=1;endArrow=none;endFill=0;dashed=1;" edge="1" parent="aXxjHZcpMNxlSh_hwpTn-130" source="aXxjHZcpMNxlSh_hwpTn-122" target="aXxjHZcpMNxlSh_hwpTn-109">
          <mxGeometry relative="1" as="geometry" />
        </mxCell>
        <mxCell id="aXxjHZcpMNxlSh_hwpTn-122" value="Displays result" style="shape=note;whiteSpace=wrap;html=1;backgroundOutline=1;darkOpacity=0.05;size=13;" vertex="1" parent="aXxjHZcpMNxlSh_hwpTn-130">
          <mxGeometry x="389.25" y="467.5" width="100" height="35" as="geometry" />
        </mxCell>
        <mxCell id="aXxjHZcpMNxlSh_hwpTn-124" value="" style="group;strokeColor=default;dashed=1;opacity=50;perimeterSpacing=0;glass=0;rounded=1;spacingLeft=0;arcSize=7;dashPattern=8 8;" vertex="1" connectable="0" parent="aXxjHZcpMNxlSh_hwpTn-130">
          <mxGeometry y="130" width="257" height="260" as="geometry" />
        </mxCell>
        <mxCell id="aXxjHZcpMNxlSh_hwpTn-85" value="" style="edgeStyle=orthogonalEdgeStyle;rounded=0;orthogonalLoop=1;jettySize=auto;html=1;" edge="1" parent="aXxjHZcpMNxlSh_hwpTn-124" source="aXxjHZcpMNxlSh_hwpTn-82" target="aXxjHZcpMNxlSh_hwpTn-84">
          <mxGeometry relative="1" as="geometry" />
        </mxCell>
        <mxCell id="aXxjHZcpMNxlSh_hwpTn-82" value="&lt;span style=&quot;white-space: pre;&quot;&gt;&#x9;&lt;/span&gt;SYSTEM: &quot;What is a charge?&quot;&lt;div&gt;&lt;span style=&quot;background-color: transparent; color: light-dark(rgb(0, 0, 0), rgb(255, 255, 255));&quot;&gt;&lt;span style=&quot;white-space: pre;&quot;&gt;&#x9;&lt;/span&gt;USER: &quot;A physical property of matter&quot;&lt;/span&gt;&lt;/div&gt;&lt;div&gt;&lt;span style=&quot;background-color: transparent; color: light-dark(rgb(0, 0, 0), rgb(255, 255, 255));&quot;&gt;&lt;span style=&quot;white-space: pre;&quot;&gt;&#x9;&lt;/span&gt;USER-COMMENTS: &quot;I know this&quot;&lt;br&gt;&lt;/span&gt;&lt;/div&gt;" style="shape=parallelogram;perimeter=parallelogramPerimeter;whiteSpace=wrap;html=1;fixedSize=1;align=left;" vertex="1" parent="aXxjHZcpMNxlSh_hwpTn-124">
          <mxGeometry x="2.25" width="252.5" height="60" as="geometry" />
        </mxCell>
        <mxCell id="aXxjHZcpMNxlSh_hwpTn-87" value="" style="edgeStyle=orthogonalEdgeStyle;rounded=0;orthogonalLoop=1;jettySize=auto;html=1;" edge="1" parent="aXxjHZcpMNxlSh_hwpTn-124" source="aXxjHZcpMNxlSh_hwpTn-84" target="aXxjHZcpMNxlSh_hwpTn-86">
          <mxGeometry relative="1" as="geometry" />
        </mxCell>
        <mxCell id="aXxjHZcpMNxlSh_hwpTn-84" value="&lt;span style=&quot;white-space: pre;&quot;&gt;&#x9;&lt;/span&gt;SYSTEM: &quot;What is magnetism?&quot;&lt;div&gt;&lt;span style=&quot;background-color: transparent; color: light-dark(rgb(0, 0, 0), rgb(255, 255, 255));&quot;&gt;&lt;span style=&quot;white-space: pre;&quot;&gt;&#x9;&lt;/span&gt;USER: &quot;A type of particle&quot;&lt;/span&gt;&lt;/div&gt;&lt;div&gt;&lt;span style=&quot;background-color: transparent; color: light-dark(rgb(0, 0, 0), rgb(255, 255, 255));&quot;&gt;&lt;span style=&quot;white-space: pre;&quot;&gt;&#x9;&lt;/span&gt;&lt;/span&gt;&lt;span style=&quot;background-color: transparent; color: light-dark(rgb(0, 0, 0), rgb(255, 255, 255));&quot;&gt;USER-COMMENTS: &quot;I think I know this&quot;&lt;/span&gt;&lt;/div&gt;" style="shape=parallelogram;perimeter=parallelogramPerimeter;whiteSpace=wrap;html=1;fixedSize=1;align=left;" vertex="1" parent="aXxjHZcpMNxlSh_hwpTn-124">
          <mxGeometry y="100" width="257" height="60" as="geometry" />
        </mxCell>
        <mxCell id="aXxjHZcpMNxlSh_hwpTn-86" value="&lt;span style=&quot;white-space: pre;&quot;&gt;&#x9;&lt;/span&gt;SYSTEM: &quot;What is a solenoid?&quot;&lt;div&gt;&lt;span style=&quot;background-color: transparent; color: light-dark(rgb(0, 0, 0), rgb(255, 255, 255));&quot;&gt;&lt;span style=&quot;white-space: pre;&quot;&gt;&#x9;&lt;/span&gt;USER: &quot;&quot;&lt;/span&gt;&lt;/div&gt;&lt;div&gt;&lt;span style=&quot;background-color: transparent; color: light-dark(rgb(0, 0, 0), rgb(255, 255, 255));&quot;&gt;&lt;span style=&quot;white-space: pre;&quot;&gt;&#x9;&lt;/span&gt;USER-COMMENTS: &quot;I don&#39;t know this&quot;&lt;/span&gt;&lt;/div&gt;" style="shape=parallelogram;perimeter=parallelogramPerimeter;whiteSpace=wrap;html=1;fixedSize=1;align=left;" vertex="1" parent="aXxjHZcpMNxlSh_hwpTn-124">
          <mxGeometry x="2.25" y="200" width="252.5" height="60" as="geometry" />
        </mxCell>
        <mxCell id="aXxjHZcpMNxlSh_hwpTn-125" value="" style="group;strokeColor=default;dashed=1;dashPattern=8 8;opacity=50;" vertex="1" connectable="0" parent="aXxjHZcpMNxlSh_hwpTn-130">
          <mxGeometry x="279.25" y="140" width="80" height="240" as="geometry" />
        </mxCell>
        <mxCell id="aXxjHZcpMNxlSh_hwpTn-100" value="CORRECT, SURE" style="whiteSpace=wrap;html=1;align=center;" vertex="1" parent="aXxjHZcpMNxlSh_hwpTn-125">
          <mxGeometry width="80" height="40" as="geometry" />
        </mxCell>
        <mxCell id="aXxjHZcpMNxlSh_hwpTn-102" value="INCORRECT,&lt;div&gt;SEMI-SURE&lt;/div&gt;" style="whiteSpace=wrap;html=1;align=center;" vertex="1" parent="aXxjHZcpMNxlSh_hwpTn-125">
          <mxGeometry y="100" width="80" height="40" as="geometry" />
        </mxCell>
        <mxCell id="aXxjHZcpMNxlSh_hwpTn-103" value="NULL, UNSURE" style="whiteSpace=wrap;html=1;align=center;" vertex="1" parent="aXxjHZcpMNxlSh_hwpTn-125">
          <mxGeometry y="200" width="80" height="40" as="geometry" />
        </mxCell>
        <mxCell id="aXxjHZcpMNxlSh_hwpTn-126" value="" style="group;strokeColor=default;dashed=1;dashPattern=8 8;opacity=50;" vertex="1" connectable="0" parent="aXxjHZcpMNxlSh_hwpTn-130">
          <mxGeometry x="389.25" y="145" width="80" height="230" as="geometry" />
        </mxCell>
        <mxCell id="aXxjHZcpMNxlSh_hwpTn-106" value="Correct" style="shape=parallelogram;perimeter=parallelogramPerimeter;whiteSpace=wrap;html=1;fixedSize=1;" vertex="1" parent="aXxjHZcpMNxlSh_hwpTn-126">
          <mxGeometry width="80" height="30" as="geometry" />
        </mxCell>
        <mxCell id="aXxjHZcpMNxlSh_hwpTn-108" value="incorrect" style="shape=parallelogram;perimeter=parallelogramPerimeter;whiteSpace=wrap;html=1;fixedSize=1;" vertex="1" parent="aXxjHZcpMNxlSh_hwpTn-126">
          <mxGeometry y="100" width="80" height="30" as="geometry" />
        </mxCell>
        <mxCell id="aXxjHZcpMNxlSh_hwpTn-109" value="incorrect" style="shape=parallelogram;perimeter=parallelogramPerimeter;whiteSpace=wrap;html=1;fixedSize=1;" vertex="1" parent="aXxjHZcpMNxlSh_hwpTn-126">
          <mxGeometry y="200" width="80" height="30" as="geometry" />
        </mxCell>
        <mxCell id="aXxjHZcpMNxlSh_hwpTn-132" style="edgeStyle=orthogonalEdgeStyle;rounded=0;orthogonalLoop=1;jettySize=auto;html=1;fontFamily=Helvetica;fontSize=12;fontColor=default;" edge="1" parent="1" source="aXxjHZcpMNxlSh_hwpTn-116" target="aXxjHZcpMNxlSh_hwpTn-27">
          <mxGeometry relative="1" as="geometry">
            <mxPoint x="1080" y="1880" as="targetPoint" />
            <Array as="points">
              <mxPoint x="1050" y="1550" />
              <mxPoint x="1050" y="1850" />
              <mxPoint x="240" y="1850" />
              <mxPoint x="240" y="785" />
            </Array>
          </mxGeometry>
        </mxCell>
        <mxCell id="aXxjHZcpMNxlSh_hwpTn-139" style="edgeStyle=orthogonalEdgeStyle;rounded=0;orthogonalLoop=1;jettySize=auto;html=1;fontFamily=Helvetica;fontSize=12;fontColor=default;strokeColor=light-dark(#000000,#3333FF);" edge="1" parent="1" source="aXxjHZcpMNxlSh_hwpTn-136" target="aXxjHZcpMNxlSh_hwpTn-138">
          <mxGeometry relative="1" as="geometry" />
        </mxCell>
        <mxCell id="aXxjHZcpMNxlSh_hwpTn-145" value="Solenoids" style="edgeLabel;html=1;align=center;verticalAlign=middle;resizable=0;points=[];rounded=1;strokeColor=default;arcSize=0;fontFamily=Helvetica;fontSize=12;fontColor=default;fillColor=default;" vertex="1" connectable="0" parent="aXxjHZcpMNxlSh_hwpTn-139">
          <mxGeometry x="-0.0615" y="2" relative="1" as="geometry">
            <mxPoint as="offset" />
          </mxGeometry>
        </mxCell>
        <mxCell id="aXxjHZcpMNxlSh_hwpTn-136" value="&lt;font style=&quot;color: light-dark(rgb(0, 0, 0), rgb(51, 51, 255));&quot;&gt;1. Solenoids&lt;/font&gt;&lt;div&gt;&lt;font style=&quot;color: light-dark(rgb(0, 0, 0), rgb(255, 33, 0));&quot;&gt;2. Magnetism&lt;/font&gt;&lt;/div&gt;" style="rhombus;whiteSpace=wrap;html=1;rounded=1;strokeColor=default;align=center;verticalAlign=middle;arcSize=0;fontFamily=Helvetica;fontSize=12;fontColor=default;fillColor=default;" vertex="1" parent="1">
          <mxGeometry x="-500" y="732.5" width="170" height="105" as="geometry" />
        </mxCell>
        <mxCell id="aXxjHZcpMNxlSh_hwpTn-141" style="edgeStyle=orthogonalEdgeStyle;rounded=0;orthogonalLoop=1;jettySize=auto;html=1;fontFamily=Helvetica;fontSize=12;fontColor=default;" edge="1" parent="1" source="aXxjHZcpMNxlSh_hwpTn-138" target="aXxjHZcpMNxlSh_hwpTn-144">
          <mxGeometry relative="1" as="geometry">
            <mxPoint x="-557.478260869565" y="1000" as="targetPoint" />
          </mxGeometry>
        </mxCell>
        <mxCell id="aXxjHZcpMNxlSh_hwpTn-177" style="edgeStyle=orthogonalEdgeStyle;rounded=0;orthogonalLoop=1;jettySize=auto;html=1;fontFamily=Helvetica;fontSize=12;fontColor=default;" edge="1" parent="1" source="aXxjHZcpMNxlSh_hwpTn-138" target="aXxjHZcpMNxlSh_hwpTn-176">
          <mxGeometry relative="1" as="geometry" />
        </mxCell>
        <mxCell id="aXxjHZcpMNxlSh_hwpTn-138" value="&lt;font style=&quot;font-size: 10px;&quot;&gt;A solenoid is an electromechanical device, acting as a temporary electromagnet, that converts electrical energy into mechanical motion using a coil of wire and a movable plunger.&lt;/font&gt;" style="shape=parallelogram;perimeter=parallelogramPerimeter;whiteSpace=wrap;html=1;fixedSize=1;rounded=1;strokeColor=default;align=center;verticalAlign=middle;arcSize=25;fontFamily=Helvetica;fontSize=12;fontColor=default;fillColor=default;" vertex="1" parent="1">
          <mxGeometry x="-680.01" y="910" width="225" height="75" as="geometry" />
        </mxCell>
        <mxCell id="aXxjHZcpMNxlSh_hwpTn-143" value="" style="edgeStyle=orthogonalEdgeStyle;rounded=0;orthogonalLoop=1;jettySize=auto;html=1;fontFamily=Helvetica;fontSize=12;fontColor=default;" edge="1" parent="1" target="aXxjHZcpMNxlSh_hwpTn-142">
          <mxGeometry relative="1" as="geometry">
            <mxPoint x="-557.5050000000001" y="1040" as="sourcePoint" />
          </mxGeometry>
        </mxCell>
        <mxCell id="aXxjHZcpMNxlSh_hwpTn-172" style="edgeStyle=orthogonalEdgeStyle;rounded=0;orthogonalLoop=1;jettySize=auto;html=1;fontFamily=Helvetica;fontSize=12;fontColor=default;" edge="1" parent="1" source="aXxjHZcpMNxlSh_hwpTn-183" target="aXxjHZcpMNxlSh_hwpTn-146">
          <mxGeometry relative="1" as="geometry" />
        </mxCell>
        <mxCell id="aXxjHZcpMNxlSh_hwpTn-144" value="&lt;span style=&quot;white-space: pre;&quot;&gt;&#x9;&lt;/span&gt;&lt;font style=&quot;font-size: 11px;&quot;&gt;SYSTEM: &quot;What is an electromechanical device?&quot;&lt;/font&gt;&lt;div&gt;&lt;font style=&quot;font-size: 11px;&quot;&gt;&lt;span style=&quot;background-color: transparent; color: light-dark(rgb(0, 0, 0), rgb(255, 255, 255));&quot;&gt;&lt;span style=&quot;white-space: pre;&quot;&gt;&#x9;&lt;/span&gt;USER: &quot;&lt;/span&gt;&lt;span style=&quot;background-color: transparent;&quot;&gt;An electromechanical device is a device that uses an electrical signal to control a mechanical component&lt;/span&gt;&lt;span style=&quot;background-color: transparent; color: light-dark(rgb(0, 0, 0), rgb(255, 255, 255));&quot;&gt;&quot;&lt;/span&gt;&lt;/font&gt;&lt;/div&gt;&lt;div&gt;&lt;span style=&quot;background-color: transparent; color: light-dark(rgb(0, 0, 0), rgb(255, 255, 255));&quot;&gt;&lt;font style=&quot;font-size: 11px;&quot;&gt;&lt;span style=&quot;white-space: pre;&quot;&gt;&#x9;&lt;/span&gt;USER-COMMENTS: &quot;I know this&quot;&lt;/font&gt;&lt;br&gt;&lt;/span&gt;&lt;/div&gt;" style="shape=parallelogram;perimeter=parallelogramPerimeter;whiteSpace=wrap;html=1;fixedSize=1;align=left;" vertex="1" parent="1">
          <mxGeometry x="-404.37" y="970" width="348.75" height="60" as="geometry" />
        </mxCell>
        <mxCell id="aXxjHZcpMNxlSh_hwpTn-175" style="edgeStyle=orthogonalEdgeStyle;rounded=0;orthogonalLoop=1;jettySize=auto;html=1;fontFamily=Helvetica;fontSize=12;fontColor=default;" edge="1" parent="1" source="aXxjHZcpMNxlSh_hwpTn-181" target="aXxjHZcpMNxlSh_hwpTn-148">
          <mxGeometry relative="1" as="geometry">
            <Array as="points">
              <mxPoint x="-568" y="1260" />
            </Array>
          </mxGeometry>
        </mxCell>
        <mxCell id="aXxjHZcpMNxlSh_hwpTn-146" value="&lt;span style=&quot;white-space: pre;&quot;&gt;&#x9;&lt;/span&gt;SYSTEM: &quot;QUESTION YOU PREVIOUSLY WRONG:&lt;div&gt;&amp;nbsp; &amp;nbsp; &amp;nbsp; &amp;nbsp; &amp;nbsp; &amp;nbsp; &amp;nbsp; &amp;nbsp; &amp;nbsp; &amp;nbsp; &amp;nbsp; &amp;nbsp; &amp;nbsp; What is a solenoid?&quot;&lt;div&gt;&lt;span style=&quot;background-color: transparent; color: light-dark(rgb(0, 0, 0), rgb(255, 255, 255));&quot;&gt;&lt;span style=&quot;white-space: pre;&quot;&gt;&#x9;&lt;/span&gt;USER: &quot;&lt;/span&gt;&lt;span style=&quot;background-color: transparent;&quot;&gt;&lt;font style=&quot;font-size: 10px;&quot;&gt;an electromagnetic device that acts like an electromagnet with a moving part, using an electric current to create a magnetic field that produces linear motion&lt;/font&gt;&lt;/span&gt;&lt;span style=&quot;background-color: transparent; color: light-dark(rgb(0, 0, 0), rgb(255, 255, 255));&quot;&gt;&quot;&lt;/span&gt;&lt;/div&gt;&lt;div&gt;&lt;span style=&quot;background-color: transparent; color: light-dark(rgb(0, 0, 0), rgb(255, 255, 255));&quot;&gt;&lt;span style=&quot;white-space: pre;&quot;&gt;&#x9;&lt;/span&gt;USER-COMMENTS: &quot;I know this&quot;&lt;/span&gt;&lt;/div&gt;&lt;/div&gt;" style="shape=parallelogram;perimeter=parallelogramPerimeter;whiteSpace=wrap;html=1;fixedSize=1;align=left;" vertex="1" parent="1">
          <mxGeometry x="-400" y="1120" width="340" height="110" as="geometry" />
        </mxCell>
        <mxCell id="aXxjHZcpMNxlSh_hwpTn-162" style="edgeStyle=orthogonalEdgeStyle;rounded=0;orthogonalLoop=1;jettySize=auto;html=1;fontFamily=Helvetica;fontSize=12;fontColor=default;exitX=0;exitY=0.5;exitDx=0;exitDy=0;exitPerimeter=0;" edge="1" parent="1" source="aXxjHZcpMNxlSh_hwpTn-148" target="aXxjHZcpMNxlSh_hwpTn-136">
          <mxGeometry relative="1" as="geometry">
            <Array as="points">
              <mxPoint x="-910" y="1395" />
              <mxPoint x="-910" y="785" />
            </Array>
          </mxGeometry>
        </mxCell>
        <mxCell id="aXxjHZcpMNxlSh_hwpTn-163" value="All correct, Moves onto next area" style="edgeLabel;html=1;align=center;verticalAlign=middle;resizable=0;points=[];rounded=1;strokeColor=default;arcSize=0;fontFamily=Helvetica;fontSize=12;fontColor=default;fillColor=default;" vertex="1" connectable="0" parent="aXxjHZcpMNxlSh_hwpTn-162">
          <mxGeometry x="-0.803" y="-3" relative="1" as="geometry">
            <mxPoint x="14" y="-607" as="offset" />
          </mxGeometry>
        </mxCell>
        <mxCell id="aXxjHZcpMNxlSh_hwpTn-164" style="edgeStyle=orthogonalEdgeStyle;rounded=0;orthogonalLoop=1;jettySize=auto;html=1;fontFamily=Helvetica;fontSize=12;fontColor=default;" edge="1" parent="1" source="aXxjHZcpMNxlSh_hwpTn-148" target="aXxjHZcpMNxlSh_hwpTn-75">
          <mxGeometry relative="1" as="geometry" />
        </mxCell>
        <mxCell id="aXxjHZcpMNxlSh_hwpTn-165" value="Once no more areas to study, reconducts diagnostics quiz" style="edgeLabel;html=1;align=center;verticalAlign=middle;resizable=0;points=[];rounded=1;strokeColor=default;arcSize=0;fontFamily=Helvetica;fontSize=12;fontColor=default;fillColor=default;" vertex="1" connectable="0" parent="aXxjHZcpMNxlSh_hwpTn-164">
          <mxGeometry x="-0.9074" y="-2" relative="1" as="geometry">
            <mxPoint x="121" y="-2" as="offset" />
          </mxGeometry>
        </mxCell>
        <mxCell id="aXxjHZcpMNxlSh_hwpTn-173" style="edgeStyle=orthogonalEdgeStyle;rounded=0;orthogonalLoop=1;jettySize=auto;html=1;fontFamily=Helvetica;fontSize=12;fontColor=default;" edge="1" parent="1" source="aXxjHZcpMNxlSh_hwpTn-148" target="aXxjHZcpMNxlSh_hwpTn-138">
          <mxGeometry relative="1" as="geometry">
            <Array as="points">
              <mxPoint x="-830" y="1395" />
              <mxPoint x="-830" y="940" />
            </Array>
          </mxGeometry>
        </mxCell>
        <mxCell id="aXxjHZcpMNxlSh_hwpTn-174" value="Incorrect, Retests user" style="edgeLabel;html=1;align=center;verticalAlign=middle;resizable=0;points=[];rounded=1;strokeColor=default;arcSize=0;fontFamily=Helvetica;fontSize=12;fontColor=default;fillColor=default;" vertex="1" connectable="0" parent="aXxjHZcpMNxlSh_hwpTn-173">
          <mxGeometry x="0.7842" y="-2" relative="1" as="geometry">
            <mxPoint as="offset" />
          </mxGeometry>
        </mxCell>
        <mxCell id="aXxjHZcpMNxlSh_hwpTn-148" value="Saves results" style="shape=cylinder3;whiteSpace=wrap;html=1;boundedLbl=1;backgroundOutline=1;size=15;rounded=1;strokeColor=default;align=center;verticalAlign=middle;arcSize=0;fontFamily=Helvetica;fontSize=12;fontColor=default;fillColor=default;" vertex="1" parent="1">
          <mxGeometry x="-636.27" y="1360" width="136.27" height="70" as="geometry" />
        </mxCell>
        <mxCell id="aXxjHZcpMNxlSh_hwpTn-156" style="edgeStyle=orthogonalEdgeStyle;rounded=0;orthogonalLoop=1;jettySize=auto;html=1;fontFamily=Helvetica;fontSize=12;fontColor=default;curved=1;endArrow=none;endFill=0;dashed=1;" edge="1" parent="1" source="aXxjHZcpMNxlSh_hwpTn-155" target="aXxjHZcpMNxlSh_hwpTn-136">
          <mxGeometry relative="1" as="geometry" />
        </mxCell>
        <mxCell id="aXxjHZcpMNxlSh_hwpTn-155" value="Gives user the choice between weak areas" style="shape=note;whiteSpace=wrap;html=1;backgroundOutline=1;darkOpacity=0.05;rounded=1;strokeColor=default;align=center;verticalAlign=middle;arcSize=0;fontFamily=Helvetica;fontSize=12;fontColor=default;fillColor=default;" vertex="1" parent="1">
          <mxGeometry x="-550" y="600" width="80" height="80" as="geometry" />
        </mxCell>
        <mxCell id="aXxjHZcpMNxlSh_hwpTn-185" style="edgeStyle=orthogonalEdgeStyle;rounded=0;orthogonalLoop=1;jettySize=auto;html=1;fontFamily=Helvetica;fontSize=12;fontColor=default;curved=1;dashed=1;endArrow=none;endFill=0;" edge="1" parent="1" source="aXxjHZcpMNxlSh_hwpTn-166" target="aXxjHZcpMNxlSh_hwpTn-138">
          <mxGeometry relative="1" as="geometry">
            <Array as="points">
              <mxPoint x="-398" y="933" />
              <mxPoint x="-398" y="930" />
            </Array>
          </mxGeometry>
        </mxCell>
        <mxCell id="aXxjHZcpMNxlSh_hwpTn-166" value="Provides information" style="shape=note;whiteSpace=wrap;html=1;backgroundOutline=1;darkOpacity=0.05;rounded=1;strokeColor=default;align=center;verticalAlign=middle;arcSize=0;fontFamily=Helvetica;fontSize=12;fontColor=default;fillColor=default;size=16;" vertex="1" parent="1">
          <mxGeometry x="-370" y="910" width="80" height="45" as="geometry" />
        </mxCell>
        <mxCell id="aXxjHZcpMNxlSh_hwpTn-186" style="edgeStyle=orthogonalEdgeStyle;rounded=0;orthogonalLoop=1;jettySize=auto;html=1;fontFamily=Helvetica;fontSize=12;fontColor=default;entryX=0.75;entryY=0;entryDx=0;entryDy=0;curved=1;dashed=1;endArrow=none;endFill=0;" edge="1" parent="1" source="aXxjHZcpMNxlSh_hwpTn-169" target="aXxjHZcpMNxlSh_hwpTn-176">
          <mxGeometry relative="1" as="geometry" />
        </mxCell>
        <mxCell id="aXxjHZcpMNxlSh_hwpTn-187" style="edgeStyle=orthogonalEdgeStyle;rounded=0;orthogonalLoop=1;jettySize=auto;html=1;entryX=0.25;entryY=1;entryDx=0;entryDy=0;fontFamily=Helvetica;fontSize=12;fontColor=default;curved=1;dashed=1;endArrow=none;endFill=0;" edge="1" parent="1" source="aXxjHZcpMNxlSh_hwpTn-169" target="aXxjHZcpMNxlSh_hwpTn-144">
          <mxGeometry relative="1" as="geometry">
            <Array as="points">
              <mxPoint x="-317" y="1050" />
            </Array>
          </mxGeometry>
        </mxCell>
        <mxCell id="aXxjHZcpMNxlSh_hwpTn-169" value="Tests user on provided information" style="shape=note;whiteSpace=wrap;html=1;backgroundOutline=1;darkOpacity=0.05;rounded=1;strokeColor=default;align=center;verticalAlign=middle;arcSize=0;fontFamily=Helvetica;fontSize=12;fontColor=default;fillColor=default;size=8;" vertex="1" parent="1">
          <mxGeometry x="-520" y="1020" width="80" height="45" as="geometry" />
        </mxCell>
        <mxCell id="aXxjHZcpMNxlSh_hwpTn-178" style="edgeStyle=orthogonalEdgeStyle;rounded=0;orthogonalLoop=1;jettySize=auto;html=1;fontFamily=Helvetica;fontSize=12;fontColor=default;" edge="1" parent="1" source="aXxjHZcpMNxlSh_hwpTn-179" target="aXxjHZcpMNxlSh_hwpTn-148">
          <mxGeometry relative="1" as="geometry">
            <Array as="points">
              <mxPoint x="-600" y="1260" />
              <mxPoint x="-568" y="1260" />
            </Array>
          </mxGeometry>
        </mxCell>
        <mxCell id="aXxjHZcpMNxlSh_hwpTn-176" value="&lt;span style=&quot;white-space: pre;&quot;&gt;&#x9;&lt;/span&gt;&lt;font style=&quot;font-size: 11px;&quot;&gt;SYSTEM: &quot;What is an electromechanical device?&quot;&lt;/font&gt;&lt;div&gt;&lt;font style=&quot;font-size: 11px;&quot;&gt;&lt;span style=&quot;background-color: transparent; color: light-dark(rgb(0, 0, 0), rgb(255, 255, 255));&quot;&gt;&lt;span style=&quot;white-space: pre;&quot;&gt;&#x9;&lt;/span&gt;USER: &quot;&lt;/span&gt;&lt;span style=&quot;background-color: transparent;&quot;&gt;An electromechanical device is a device that uses an electrical signal to control a mechanical component&lt;/span&gt;&lt;span style=&quot;background-color: transparent; color: light-dark(rgb(0, 0, 0), rgb(255, 255, 255));&quot;&gt;&quot;&lt;/span&gt;&lt;/font&gt;&lt;/div&gt;&lt;div&gt;&lt;span style=&quot;background-color: transparent; color: light-dark(rgb(0, 0, 0), rgb(255, 255, 255));&quot;&gt;&lt;font style=&quot;font-size: 11px;&quot;&gt;&lt;span style=&quot;white-space: pre;&quot;&gt;&#x9;&lt;/span&gt;USER-COMMENTS: &quot;I know this&quot;&lt;/font&gt;&lt;br&gt;&lt;/span&gt;&lt;/div&gt;" style="shape=parallelogram;perimeter=parallelogramPerimeter;whiteSpace=wrap;html=1;fixedSize=1;align=left;" vertex="1" parent="1">
          <mxGeometry x="-774" y="1100" width="348.75" height="60" as="geometry" />
        </mxCell>
        <mxCell id="aXxjHZcpMNxlSh_hwpTn-180" value="" style="edgeStyle=orthogonalEdgeStyle;rounded=0;orthogonalLoop=1;jettySize=auto;html=1;fontFamily=Helvetica;fontSize=12;fontColor=default;" edge="1" parent="1" source="aXxjHZcpMNxlSh_hwpTn-176" target="aXxjHZcpMNxlSh_hwpTn-179">
          <mxGeometry relative="1" as="geometry">
            <mxPoint x="-600" y="1160" as="sourcePoint" />
            <mxPoint x="-568" y="1360" as="targetPoint" />
          </mxGeometry>
        </mxCell>
        <mxCell id="aXxjHZcpMNxlSh_hwpTn-179" value="INCORRECT,&lt;div&gt;SURE&lt;/div&gt;" style="whiteSpace=wrap;html=1;align=center;" vertex="1" parent="1">
          <mxGeometry x="-639.62" y="1190" width="80" height="40" as="geometry" />
        </mxCell>
        <mxCell id="aXxjHZcpMNxlSh_hwpTn-182" value="" style="edgeStyle=orthogonalEdgeStyle;rounded=0;orthogonalLoop=1;jettySize=auto;html=1;fontFamily=Helvetica;fontSize=12;fontColor=default;" edge="1" parent="1" source="aXxjHZcpMNxlSh_hwpTn-146" target="aXxjHZcpMNxlSh_hwpTn-181">
          <mxGeometry relative="1" as="geometry">
            <mxPoint x="-230" y="1230" as="sourcePoint" />
            <mxPoint x="-568" y="1360" as="targetPoint" />
            <Array as="points">
              <mxPoint x="-230" y="1260" />
            </Array>
          </mxGeometry>
        </mxCell>
        <mxCell id="aXxjHZcpMNxlSh_hwpTn-181" value="CORRECT, SURE" style="whiteSpace=wrap;html=1;align=center;" vertex="1" parent="1">
          <mxGeometry x="-500" y="1240" width="80" height="40" as="geometry" />
        </mxCell>
        <mxCell id="aXxjHZcpMNxlSh_hwpTn-184" value="" style="edgeStyle=orthogonalEdgeStyle;rounded=0;orthogonalLoop=1;jettySize=auto;html=1;fontFamily=Helvetica;fontSize=12;fontColor=default;" edge="1" parent="1" source="aXxjHZcpMNxlSh_hwpTn-144" target="aXxjHZcpMNxlSh_hwpTn-183">
          <mxGeometry relative="1" as="geometry">
            <mxPoint x="-230" y="1045" as="sourcePoint" />
            <mxPoint x="-230" y="1120" as="targetPoint" />
          </mxGeometry>
        </mxCell>
        <mxCell id="aXxjHZcpMNxlSh_hwpTn-183" value="CORRECT, SURE" style="whiteSpace=wrap;html=1;align=center;" vertex="1" parent="1">
          <mxGeometry x="-269.99" y="1050" width="80" height="40" as="geometry" />
        </mxCell>
        <mxCell id="aXxjHZcpMNxlSh_hwpTn-190" style="edgeStyle=orthogonalEdgeStyle;rounded=0;orthogonalLoop=1;jettySize=auto;html=1;fontFamily=Helvetica;fontSize=12;fontColor=default;curved=1;dashed=1;endArrow=none;endFill=0;" edge="1" parent="1" source="aXxjHZcpMNxlSh_hwpTn-189" target="aXxjHZcpMNxlSh_hwpTn-146">
          <mxGeometry relative="1" as="geometry" />
        </mxCell>
        <mxCell id="aXxjHZcpMNxlSh_hwpTn-189" value="Tests user on past question" style="shape=note;whiteSpace=wrap;html=1;backgroundOutline=1;darkOpacity=0.05;rounded=1;strokeColor=default;align=center;verticalAlign=middle;arcSize=0;fontFamily=Helvetica;fontSize=12;fontColor=default;fillColor=default;size=9;" vertex="1" parent="1">
          <mxGeometry x="-20" y="1152.5" width="80" height="45" as="geometry" />
        </mxCell>
      </root>
    </mxGraphModel>
  </diagram>
</mxfile>
